<mxfile host="app.diagrams.net" modified="2024-06-01T01:01:46.669Z" agent="Mozilla/5.0 (Macintosh; Intel Mac OS X 10_15_7) AppleWebKit/537.36 (KHTML, like Gecko) Chrome/120.0.0.0 Safari/537.36 Edg/120.0.0.0" etag="3DJ9TGL-PmZXG88IRVnr" version="24.4.9" type="device">
  <diagram name="Page-1" id="33ry9KU3LZHY7CVXHkCq">
    <mxGraphModel dx="786" dy="486" grid="1" gridSize="10" guides="1" tooltips="1" connect="1" arrows="1" fold="1" page="1" pageScale="1" pageWidth="850" pageHeight="1100" math="0" shadow="0">
      <root>
        <mxCell id="0" />
        <mxCell id="1" parent="0" />
        <mxCell id="i7JewkLFXeo5OSI8TgR--3" value="&lt;b&gt;Viewer / Customer&lt;/b&gt;" style="shape=umlActor;verticalLabelPosition=bottom;verticalAlign=top;html=1;outlineConnect=0;" parent="1" vertex="1">
          <mxGeometry x="110" y="170" width="30" height="60" as="geometry" />
        </mxCell>
        <mxCell id="WhkKOYXM4CWnfYFqQ2H_-1" value="Usecase Sistem Informasi PT Pelita Rumah Langit" style="shape=umlFrame;whiteSpace=wrap;html=1;pointerEvents=0;width=290;height=30;" parent="1" vertex="1">
          <mxGeometry x="200" y="40" width="510" height="370" as="geometry" />
        </mxCell>
        <mxCell id="WhkKOYXM4CWnfYFqQ2H_-2" value="Mengakses halaman katalog" style="ellipse;whiteSpace=wrap;html=1;" parent="1" vertex="1">
          <mxGeometry x="260" y="110" width="140" height="70" as="geometry" />
        </mxCell>
        <mxCell id="WhkKOYXM4CWnfYFqQ2H_-4" value="Melihat daftar kategori produk dan layanan" style="ellipse;whiteSpace=wrap;html=1;" parent="1" vertex="1">
          <mxGeometry x="260" y="190" width="140" height="70" as="geometry" />
        </mxCell>
        <mxCell id="WhkKOYXM4CWnfYFqQ2H_-5" value="Melakukan pemesanan" style="ellipse;whiteSpace=wrap;html=1;" parent="1" vertex="1">
          <mxGeometry x="260" y="270" width="140" height="70" as="geometry" />
        </mxCell>
        <mxCell id="WhkKOYXM4CWnfYFqQ2H_-21" value="Menyediakan Produk&amp;nbsp;&lt;div&gt;dan layanan&lt;/div&gt;" style="ellipse;whiteSpace=wrap;html=1;" parent="1" vertex="1">
          <mxGeometry x="480" y="140" width="140" height="70" as="geometry" />
        </mxCell>
        <mxCell id="WhkKOYXM4CWnfYFqQ2H_-22" value="Menerima Pemesanan" style="ellipse;whiteSpace=wrap;html=1;" parent="1" vertex="1">
          <mxGeometry x="480" y="230" width="140" height="70" as="geometry" />
        </mxCell>
        <mxCell id="WhkKOYXM4CWnfYFqQ2H_-23" value="&lt;b&gt;Owner ( PT )&lt;/b&gt;" style="shape=umlActor;verticalLabelPosition=bottom;verticalAlign=top;html=1;outlineConnect=0;" parent="1" vertex="1">
          <mxGeometry x="760" y="170" width="30" height="60" as="geometry" />
        </mxCell>
        <mxCell id="vhrkysBF9pzLQ4B9dxrm-1" value="" style="endArrow=classic;html=1;rounded=0;entryX=0;entryY=0.5;entryDx=0;entryDy=0;" edge="1" parent="1" source="i7JewkLFXeo5OSI8TgR--3" target="WhkKOYXM4CWnfYFqQ2H_-2">
          <mxGeometry width="50" height="50" relative="1" as="geometry">
            <mxPoint x="380" y="280" as="sourcePoint" />
            <mxPoint x="430" y="230" as="targetPoint" />
            <Array as="points" />
          </mxGeometry>
        </mxCell>
        <mxCell id="vhrkysBF9pzLQ4B9dxrm-2" value="" style="endArrow=classic;html=1;rounded=0;entryX=0;entryY=0.5;entryDx=0;entryDy=0;" edge="1" parent="1" target="WhkKOYXM4CWnfYFqQ2H_-4">
          <mxGeometry width="50" height="50" relative="1" as="geometry">
            <mxPoint x="140" y="190" as="sourcePoint" />
            <mxPoint x="270" y="155" as="targetPoint" />
            <Array as="points" />
          </mxGeometry>
        </mxCell>
        <mxCell id="vhrkysBF9pzLQ4B9dxrm-3" value="" style="endArrow=classic;html=1;rounded=0;entryX=0;entryY=0.5;entryDx=0;entryDy=0;" edge="1" parent="1" target="WhkKOYXM4CWnfYFqQ2H_-5">
          <mxGeometry width="50" height="50" relative="1" as="geometry">
            <mxPoint x="140" y="190" as="sourcePoint" />
            <mxPoint x="270" y="235" as="targetPoint" />
            <Array as="points" />
          </mxGeometry>
        </mxCell>
        <mxCell id="vhrkysBF9pzLQ4B9dxrm-4" value="" style="endArrow=classic;html=1;rounded=0;entryX=1;entryY=0.5;entryDx=0;entryDy=0;" edge="1" parent="1" source="WhkKOYXM4CWnfYFqQ2H_-23" target="WhkKOYXM4CWnfYFqQ2H_-21">
          <mxGeometry width="50" height="50" relative="1" as="geometry">
            <mxPoint x="150" y="204" as="sourcePoint" />
            <mxPoint x="270" y="155" as="targetPoint" />
            <Array as="points" />
          </mxGeometry>
        </mxCell>
        <mxCell id="vhrkysBF9pzLQ4B9dxrm-5" value="" style="endArrow=classic;html=1;rounded=0;entryX=1;entryY=0.5;entryDx=0;entryDy=0;" edge="1" parent="1" target="WhkKOYXM4CWnfYFqQ2H_-22">
          <mxGeometry width="50" height="50" relative="1" as="geometry">
            <mxPoint x="760" y="200" as="sourcePoint" />
            <mxPoint x="630" y="185" as="targetPoint" />
            <Array as="points" />
          </mxGeometry>
        </mxCell>
      </root>
    </mxGraphModel>
  </diagram>
</mxfile>
